<svg width="57" height="57" viewBox="0 0 57 57" fill="none" xmlns="http://www.w3.org/2000/svg">
<path d="M28.5154 0.500061C13.0514 0.500061 0.515381 13.0361 0.515381 28.5001C0.515381 43.9641 13.0514 56.5001 28.5154 56.5001C43.9794 56.5001 56.5154 43.9641 56.5154 28.5001C56.5154 13.0361 43.9794 0.500061 28.5154 0.500061ZM24.1754 23.2699H18.4768V37.3431H14.5868V23.2699H8.88817V20.2472H24.1754V23.2699ZM29.8398 37.3431H25.9498V20.2472H29.8398V37.3431ZM43.6082 37.3431L39.6444 31.1739L35.9524 37.3431H31.3189L37.439 28.7207L31.7404 20.2472H36.2497L39.7928 26.2926L43.5835 20.2472H48.0433L42.0721 28.6465L48.1427 37.3431H43.6082Z" fill="#060606"/>
</svg>
